# xmcd
#
# Track frame offsets:
#	150
#	17473
#	33725
#	46177
#	62048
#	76468
#	93306
#	109331
#	126412
#	139272
#	155919
#	173281
#	190739
#	203981
#	221118
#
# Disc length: 3161 seconds
#
# Revision: 1
# Processed by: cddbd v1.5.2PL0 Copyright (c) Steve Scherf et al.
# Submitted via: EZCDAudioConverter 4.0.5.1
#
DISCID=d50c570f
DTITLE=Pedro and Thiago
DYEAR=2005
DGENRE=Sertanejo
TTITLE0=O Preço da Desilusão
TTITLE1=Sintoma de Amor
TTITLE2=Vício Dominador
TTITLE3=Jogo do Amor
TTITLE4=Amor Amigo
TTITLE5=De Onde Vem Tanto Amor?
TTITLE6=No Batidão da Viola
TTITLE7=Doces Palavras
TTITLE8=Sapatiô,Sapatiô
TTITLE9=Águas do Tempo
TTITLE10=Arrepiado
TTITLE11=Nosso Momento
TTITLE12=Fala,Fala
TTITLE13=O Preço da Desilusão
TTITLE14=Show Brasileiro
EXTD=
EXTT0=
EXTT1=
EXTT2=
EXTT3=
EXTT4=
EXTT5=
EXTT6=
EXTT7=
EXTT8=
EXTT9=
EXTT10=
EXTT11=
EXTT12=
EXTT13=
EXTT14=
PLAYORDER=
